<?xml version="1.0" encoding="utf-8"?>
<!-- Generator: Adobe Illustrator 19.2.1, SVG Export Plug-In . SVG Version: 6.00 Build 0)  -->
<svg version="1.1" id="Layer_1" xmlns="http://www.w3.org/2000/svg" xmlns:xlink="http://www.w3.org/1999/xlink" x="0px" y="0px"
	 viewBox="0 0 100 100" style="enable-background:new 0 0 100 100;" xml:space="preserve">
<g>
	<path d="M71.6,80.5c-0.6,0.7-2.9,1.1-6.7,1.1c-0.1,0-0.2-0.1-0.3-0.2l-0.2-0.2c0-1.8-0.3-9.1-0.8-21.9c-0.5-11.4-0.9-18.1-1.1-20.3
		c-1.4,6.7-1.5,12.9-0.5,18.8c1.7,10.4,2.4,17.3,2.2,20.8c0,0.1-0.1,0.3-0.3,0.5c-0.2,0.2-1.9,0.6-5.2,1.1c-2.6,0.3-5.3,0.5-8.1,0.5
		c0,0.1-0.1,0.2-0.2,0.2h-0.8H49h-0.3c-3.3-0.2-5.8-0.4-7.3-0.6c-0.1,0-0.6,0-1.5-0.1c-0.9-0.1-1.7-0.2-2.4-0.3
		c-0.7-0.2-1.3-0.4-1.6-0.7c-0.2,0-0.3-0.1-0.3-0.2c-0.2-4.8,0.7-12.1,2.7-22c0.9-4.9,0.7-10.7-0.8-17.5c-0.2,2.1-0.6,8.8-1.1,20
		c-0.5,13-0.8,20.3-0.8,21.9c0,0.2-0.2,0.3-0.5,0.3c-0.1,0.1-0.3,0.2-0.5,0.2C34.2,82,33,82,31.2,81.8s-2.9-0.5-3-1.2v-6.4l0.5-20.6
		c0.1-4.7,0.6-10.3,1.6-16.9c0-0.3,0.1-1,0.2-2.1c0.1-1.1,0.2-2,0.2-2.6c0.1-0.6,0.2-1.3,0.5-2.1s0.7-1.4,1.3-2
		c0.6-0.5,1.4-1,2.3-1.6c0.9-0.5,1.8-0.9,2.5-1.2c0.7-0.3,1.7-0.6,3-1c1.3-0.4,2.2-0.7,2.6-0.9c0-0.4,0.4-1.6,1.3-3.6l0.2-0.2
		c0.2-0.3,0.7-0.6,1.6-0.9H46c1.4-0.5,3.2-0.7,5.6-0.5c2.2,0,3.6,0.4,4.2,1.3c0.1,0,0.2,0.1,0.2,0.2c0.2,0,0.3,0.1,0.3,0.2
		c0.7,1.8,1.1,2.9,1.3,3.4c3.3,1.3,5.4,2.1,6.3,2.5c2.5,1,4,2.1,4.5,3.1c0.3,0.6,0.6,1.4,0.9,2.3c0.3,0.9,0.4,1.7,0.5,2.4
		c0.1,0.7,0.1,1.6,0.2,2.7c0.1,1.1,0.2,1.9,0.2,2.3c0.6,4.6,1,10,1.3,16.3l0.5,20.6C71.8,78.7,71.7,80.4,71.6,80.5z M70.7,78
		c0-3.6-0.1-6.4-0.2-8.1c0-5.9-0.2-11.8-0.5-17.5c-0.1-4.3-0.5-9-1.3-14.2c0-0.3-0.1-1.3-0.2-2.9c-0.1-1.6-0.3-2.9-0.5-4
		c-0.2-1-0.6-1.9-1.1-2.7c-0.6-0.8-2.6-1.9-5.9-3.3c-0.4-0.2-1-0.5-1.8-0.8S58,24,57.6,23.9c0,0.4-0.2,0.8-0.5,1.1
		c-0.7,1.1-1.8,2.2-3.1,3.3c-0.4,0.4-0.7,0.5-0.9,0.2c-0.6-1-1-1.8-1.3-2.3c-1,0.3-2.1,0.4-3.3,0.2c-0.3,0.4-0.7,1-1.1,1.9
		c-0.3,0.3-0.7,0.4-1.1,0.2c-1.3-0.9-2.3-2.1-3.1-3.4c-0.2-0.2-0.3-0.5-0.3-0.9c-0.2,0.1-0.9,0.3-2,0.7c-1.1,0.4-2,0.7-2.4,0.9
		c-0.5,0.2-1.2,0.5-2.1,0.9c-0.9,0.4-1.6,0.8-2.1,1.3c-0.5,0.4-0.9,0.9-1.4,1.5c-0.5,0.6-0.8,1.2-0.9,1.8c-0.3,1.9-0.7,5.1-1.1,9.5
		c-0.5,4-0.9,8.3-1.1,13c-0.2,7.9-0.3,13.8-0.3,17.7c-0.1,1.8-0.2,4.3-0.2,7.7c0,1.3,0.4,1.9,1.3,2c1.7,0.2,2.9,0.3,3.8,0.3
		c0-4.6,0.3-11.6,0.9-20.9c0.5-11.9,0.9-19.5,1.3-23c0-0.5,0.3-0.7,0.9-0.5c0.1,0.1,0.2,0.2,0.2,0.3c0.3,0,0.5,0.1,0.5,0.2
		c0.4,1.9,0.8,4.5,1.3,7.8c0.6,4.4,0.7,7.6,0.3,9.7c-0.2,1-0.5,2.9-1,5.6c-0.5,2.7-0.8,4.8-1.1,6.3c-0.3,1.5-0.5,3.4-0.6,5.5
		s-0.2,4.2-0.1,6.1v0.2c0.2,0.8,2.6,1.3,7,1.3c1.4,0.1,3.5,0.3,6.4,0.5c2.7-0.2,4.8-0.4,6.3-0.5c4.3,0,6.5-0.4,6.7-1.1
		c0.1-2.4,0-4.9-0.3-7.6s-0.8-5.6-1.3-8.8c-0.6-3.2-1-5.7-1.2-7.3c-0.6-5.5-0.2-11.4,1.4-17.5c0.2-0.2,0.4-0.3,0.6-0.3v-0.2
		c0.5-0.3,0.9-0.4,1.1-0.2c0.3,3.4,0.7,11.1,1.3,23c0.6,9.4,0.9,16.5,0.9,21.2c3.2,0,4.8-0.2,4.8-0.6C70.6,79.8,70.7,79,70.7,78z
		 M37,36.3l-0.5,0.2c-1.1-2.1-2.1-4.6-3-7.5c0-0.1,0.1-0.2,0.2-0.2c0.2-0.1,0.3,0,0.4,0.1C35.1,32.1,36,34.6,37,36.3z M44.8,25.2
		c0.8,1,1.5,1.8,2,2.2c0.5-1,1.3-2.5,2.3-4.4v-0.2c-1.3-0.4-2.6-1-4.1-1.7l-0.3-0.3C43.9,22.8,43.9,24.3,44.8,25.2z M45.4,19.8
		c0,0.3,0.2,0.5,0.6,0.7c0.3,0.2,0.9,0.5,1.7,0.9c1.7-0.3,3.4-0.4,5.2-0.2c0.9-0.3,1.5-0.6,1.8-0.9c0.3-0.3-0.1-0.7-1-1.1
		c-2.6-0.7-5-0.8-7.2-0.2l-0.3,0.2C45.6,19.4,45.4,19.5,45.4,19.8z M51.6,21.9c-0.9-0.2-1.9-0.2-2.8,0c0.6,0.2,1.1,0.4,1.6,0.6
		C50.6,22.3,51,22.1,51.6,21.9z M49.5,24.4c-0.3,0.5-0.5,0.9-0.7,1.1c0.4,0.1,1,0.2,1.9,0.2h0.8c-0.2-0.4-0.4-0.7-0.5-0.8
		c-0.1,0.5-0.5,0.7-1.3,0.6c-0.4-0.1-0.6-0.3-0.5-0.6c0-0.2,0.2-0.4,0.5-0.5c0.4-0.2,0.6-0.2,0.9-0.1c-0.1-0.1-0.2-0.3-0.3-0.5
		c-0.1-0.2-0.2-0.4-0.3-0.5C50,23.5,49.8,23.9,49.5,24.4z M50.1,27.1v52.5c-0.2,0.1-0.4,0.2-0.5,0.2V27.2
		C49.8,27.1,50,27.1,50.1,27.1z M55.5,20.8c-0.4,0.3-1.9,1-4.4,2c0.3,0.5,0.8,1.3,1.3,2.3c0.6,1,1,1.8,1.3,2.3
		c0.9-0.7,1.6-1.5,2-2.2c0.5-0.6,0.7-1.2,0.5-1.7c-0.2-0.2-0.2-0.3,0-0.3C56.3,23,56.1,22.2,55.5,20.8z M66,28.8l0.3,0.2
		c-1,3.3-2,5.8-2.8,7.3c-0.4,0.4-0.6,0.4-0.6,0c1-2.1,2-4.5,3-7.3L66,28.8z"/>
</g>
</svg>
