<?xml version="1.0" encoding="utf-8"?>
<!-- Generator: Adobe Illustrator 19.2.1, SVG Export Plug-In . SVG Version: 6.00 Build 0)  -->
<svg version="1.1" id="Layer_1" xmlns="http://www.w3.org/2000/svg" xmlns:xlink="http://www.w3.org/1999/xlink" x="0px" y="0px"
	 viewBox="0 0 100 100" style="enable-background:new 0 0 100 100;" xml:space="preserve">
<g>
	<path d="M70.1,79.2C69.5,79.7,67.4,80,64,80c-0.2,0-0.3-0.1-0.3-0.2c-0.1,0-0.2-0.1-0.2-0.2v-4.2c0,0.8-0.1,1.5-0.2,1.9L63,77.7
		c-0.3,0.2-1.9,0.6-4.8,1.1l-7.5,0.5h-0.2H49c-3.2,0-5.7-0.1-7.3-0.2c-2.7-0.4-4.2-0.8-4.5-1.3H37v-0.2l-0.2-0.2l0.2-0.2
		c-0.1-1.9-0.1-3.9,0-6.1c0.1-2.2,0.3-4.6,0.5-7.2c0.2-2.6,0.4-4.6,0.5-6.1c0.5-9.2,0.7-14.9,0.5-17.2c-0.2,2-0.6,8.3-1.1,18.9
		c-0.5,10.9-0.8,17.6-0.8,20c0,0.1-0.1,0.3-0.3,0.5c-0.1,0-0.2,0-0.3,0l-0.2,0.2c-4,0-5.9-0.4-5.9-1.3c-0.1-1.3-0.2-3.2-0.2-5.9
		c0.1-2.1,0.2-5.3,0.3-9.5c0.1-4.3,0.2-7.4,0.2-9.5c0.1-3.3,0.6-8.4,1.4-15.3c0-0.1,0.1-1,0.2-2.6c0.1-1.6,0.3-2.9,0.5-3.8
		c0.3-0.9,0.7-1.6,1.3-2.3c1-0.9,4.1-2.3,9.1-4.2c0-0.4,0.1-0.9,0.2-1.4c0.2-0.5,0.4-1.1,0.6-1.7c0.3-0.6,0.4-1.1,0.5-1.4h0.2
		c0.2-0.4,0.7-0.7,1.6-0.9c2.9-1,5.9-1,9.1,0c0.3,0.1,0.6,0.3,0.9,0.6c0.1,0,0.2,0.1,0.2,0.2c1.1,2.2,1.6,3.6,1.4,4.4
		c2.5,0.8,4.6,1.7,6.3,2.5c2,0.8,3.2,1.6,3.6,2.3c0.6,1.1,1.2,4.5,1.7,10.2c0.5,4.5,0.9,9.4,1.1,14.8c0.3,12.8,0.5,19.3,0.5,19.4
		C70.4,77.6,70.3,79,70.1,79.2z M69.1,76.4v-7.2l-0.5-16.4c-0.2-4.7-0.6-8.9-1.1-12.7c-0.6-5.4-1-8.3-1.3-8.8
		c-0.3-0.5-0.7-1-1.3-1.5c-0.5-0.5-1.2-0.9-2-1.3c-0.8-0.4-1.4-0.6-2-0.9c-0.5-0.2-1.3-0.5-2.3-0.8c-1-0.3-1.7-0.5-1.9-0.6
		c-0.3,0.4-0.9,0.8-1.7,1.3c-0.1,0.2-0.3,0.3-0.5,0.4c-0.3,0.1-0.4,0-0.5-0.1c-0.1-0.2-0.2-0.4-0.4-0.7c-0.2-0.3-0.3-0.5-0.3-0.6
		c-0.1-0.2-0.1-0.3-0.2-0.5c-0.1-0.2-0.2-0.4-0.3-0.6c-0.1,0-0.2,0.1-0.2,0.2c-0.1,0.3-0.3,0.7-0.5,1.1c-0.2,0.4-0.4,0.8-0.5,1.1
		c-0.3,0.9-0.7,1.9-1.3,3l-0.3,0.3v47c-0.3,0.2-0.5,0.3-0.6,0.2V31.1c-0.2,0-0.3-0.1-0.2-0.2v-0.2l-0.2-0.2C49,30,48.5,29,47.9,27.5
		c-0.2-0.7-0.5-1.5-0.8-2.3c-0.5,0.8-0.9,1.7-1.3,2.5c-0.3,0.3-0.7,0.4-1.1,0.2h-0.2c-0.8-0.2-1.4-0.6-1.7-1.3
		c-0.1,0-0.6,0.2-1.6,0.5s-1.6,0.5-1.9,0.7s-0.9,0.4-1.6,0.7s-1.4,0.6-1.7,0.9c-0.4,0.3-0.8,0.7-1.3,1.1c-0.5,0.4-0.9,0.9-1.1,1.3
		c-0.2,0.5-0.4,1-0.5,1.6c-0.2,1.8-0.5,4.5-0.9,8.3c-0.6,4.1-0.9,8.1-0.9,12.2c-0.1,3.8-0.3,9.3-0.5,16.6v6.7c0,1.3,0.2,1.9,0.6,2
		c1.9,0.2,3.2,0.3,3.9,0.3c0-1.5,0.3-8,0.8-19.7c0.5-11.1,0.9-18.2,1.3-21.3c0-0.4,0.3-0.5,0.9-0.3c0.1,0,0.2,0.1,0.2,0.2v0.3
		c0.2-0.1,0.4-0.1,0.5-0.1c0.2,0.1,0.2,0.1,0.2,0.2c0.2,1.4,0.2,7.1-0.2,17.3c0,0.8-0.2,3.9-0.6,9.1c-0.4,5.2-0.6,9.2-0.5,12
		c0.2,0.4,0.7,0.7,1.6,0.9c0.8,0.2,1.8,0.3,3,0.3c1.1,0.1,1.8,0.1,1.9,0.1h5.3c1.5,0,3.5-0.1,6.3-0.3c4.1,0,6.1-0.4,6.3-1.1
		c0.1-2.7-0.1-6.7-0.5-12c-0.4-5.3-0.6-8.3-0.6-9c-0.3-10-0.4-15.8-0.2-17.3c0-0.2,0.2-0.3,0.5-0.3v-0.2c0-0.3,0.2-0.5,0.6-0.5v-0.2
		c0.7-1.5,1.6-3.8,2.7-6.9c0-0.1,0.1-0.2,0.3-0.2c0.2,0,0.3,0.1,0.3,0.2c-0.8,2.5-1.8,4.8-2.8,6.9c0,0.1-0.1,0.2-0.3,0.2
		c0.1,0,0.2,0.1,0.3,0.2c0.3,3.1,0.7,10.4,1.3,21.9c0.5,11.5,0.8,17.9,0.8,19.4c3,0,4.5-0.3,4.5-0.8V76.4z M37.9,37.8L37.4,38
		c-0.8-1.5-1.8-3.8-2.8-6.9c0.3-0.3,0.5-0.4,0.6-0.2C36.3,34.1,37.2,36.4,37.9,37.8z M44,24.1c-0.3,0.7-0.4,1.2-0.3,1.5
		c0.1,0.4,0.5,0.8,1.1,1.3c0.2-0.3,0.5-0.8,0.8-1.5c0.3-0.7,0.5-1.2,0.6-1.5c-0.2-0.2-0.5-0.4-0.9-0.6c-0.1,0-0.2-0.1-0.3-0.2
		c-0.1-0.1-0.2-0.2-0.3-0.3L44.5,23C44.5,23.1,44.3,23.5,44,24.1z M45.1,21.6c0,0.1,0.2,0.3,0.5,0.6c0.2,0.1,0.4,0.3,0.6,0.5
		c0.1,0,0.7-0.1,1.7-0.3c1-0.2,1.8-0.3,2.3-0.2c0.2,0,1.4,0.2,3.6,0.5c1.1-0.7,0.9-1.3-0.6-1.7c-2.2-0.6-4.5-0.7-6.9-0.2
		c-0.1,0.1-0.2,0.2-0.3,0.2C45.4,21.2,45.1,21.5,45.1,21.6z M51,27c0-0.1,0.2-0.6,0.5-1.4c0.4-0.8,0.7-1.5,1-1.9
		c-0.1-0.1,0.1-0.3,0.5-0.5c-1.1-0.3-2.2-0.5-3.3-0.5c-0.6,0-1.6,0.1-2.8,0.3v0.2h0.3l0.2,0.2L49,27c0.2,0.4,0.5,1.1,0.9,2.2h0.3
		C50.3,28.8,50.6,28.1,51,27z M54.5,23.1c-0.3,0.2-0.5,0.4-0.6,0.5h-0.2c0.5,1.4,1,2.5,1.6,3.4c0.4-0.4,0.7-0.7,0.8-0.9
		c0-0.1,0.1-0.2,0.2-0.2v-0.6c0-0.3-0.1-0.6-0.2-0.9c-0.1-0.3-0.2-0.6-0.4-1c-0.2-0.4-0.3-0.6-0.4-0.9C55,22.7,54.8,22.9,54.5,23.1z
		 M62.7,61.7c0.1,1.9,0.2,3.3,0.3,4.2c-0.2-2.9-0.3-5.2-0.3-6.9c-0.1-1.1-0.2-2.8-0.3-5c-0.1-2.2-0.2-4.2-0.3-5.9
		c-0.1-1.8-0.2-3.4-0.3-5c0,1.9,0.1,4.5,0.3,7.9c0.2,3.4,0.3,5.5,0.3,6.5C62.5,58.4,62.6,59.8,62.7,61.7z"/>
</g>
</svg>
